<svg height="512pt" viewBox="0 0 512 512" width="512pt" xmlns="http://www.w3.org/2000/svg"><path d="m512 418.132812v-8.53125c0-132.519531-101.214844-241.832031-230.398438-254.71875v-18.347656h17.066407c4.710937 0 8.53125-3.816406 8.53125-8.535156 0-23.523438-19.140625-42.667969-42.667969-42.667969h-17.066406c-23.523438 0-42.664063 19.144531-42.664063 42.667969 0 4.71875 3.820313 8.535156 8.53125 8.535156h17.066407v18.347656c-129.183594 12.886719-230.398438 122.199219-230.398438 254.71875v8.53125c0 4.71875 3.820312 8.535157 8.535156 8.535157h24.027344c-3.535156 9.910156-12.917969 17.066406-24.027344 17.066406-4.714844 0-8.535156 3.816406-8.535156 8.53125v51.199219c0 4.71875 3.820312 8.535156 8.535156 8.535156h494.929688c4.714844 0 8.535156-3.816406 8.535156-8.535156v-51.199219c0-4.714844-3.820312-8.53125-8.535156-8.53125-11.109375 0-20.492188-7.15625-24.027344-17.066406h24.027344c4.714844-.003907 8.535156-3.820313 8.535156-8.535157zm-247.46875-315.734374c11.125 0 20.617188 7.136718 24.140625 17.070312h-32.671875v-17.070312zm-17.066406 34.136718h17.066406v17.066406h-17.066406zm-24.136719-17.066406c2.574219-7.257812 8.351563-12.984375 15.605469-15.5625v15.5625zm271.605469 341.332031v34.132813h-477.867188v-34.132813zm-452.289063-17.066406c3.734375-4.96875 6.414063-10.769531 7.695313-17.070313h411.320312c1.28125 6.300782 3.960938 12.101563 7.695313 17.070313zm426.6875-34.132813h-452.265625c0-131.75 107.183594-238.933593 238.933594-238.933593s238.933594 107.183593 238.933594 238.933593zm0 0"/><path d="m238.933594 68.265625h34.132812c4.171875 0 7.734375-3.015625 8.417969-7.132813l8.53125-51.199218c.414063-2.476563-.28125-5-1.902344-6.917969-1.621093-1.917969-4.003906-3.015625-6.511719-3.015625h-51.203124c-2.507813 0-4.890626 1.101562-6.511719 3.015625-1.621094 1.917969-2.316407 4.441406-1.902344 6.917969l8.53125 51.199218c.683594 4.117188 4.246094 7.132813 8.417969 7.132813zm32.589844-51.199219-5.6875 34.132813h-19.671876l-5.6875-34.132813zm0 0"/><path d="m100.191406 136.226562c1.492188 1.066407 3.230469 1.589844 4.953125 1.589844 2.199219 0 4.386719-.847656 6.039063-2.5l24.136718-24.132812c2.949219-2.949219 3.332032-7.601563.910157-10.992188l-30.171875-42.234375c-1.453125-2.042969-3.738282-3.339843-6.238282-3.550781-2.535156-.183594-4.964843.703125-6.738281 2.476562l-36.203125 36.199219c-1.773437 1.777344-2.679687 4.234375-2.46875 6.734375.207032 2.5 1.503906 4.78125 3.542969 6.242188zm-2.164062-60.152343 20.113281 28.148437-13.910156 13.917969-28.160157-20.117187zm0 0"/><path d="m400.816406 135.316406c1.648438 1.648438 3.835938 2.5 6.039063 2.5 1.722656 0 3.460937-.523437 4.953125-1.589844l42.238281-30.167968c2.039063-1.457032 3.335937-3.742188 3.542969-6.242188.210937-2.5-.695313-4.957031-2.46875-6.734375l-36.203125-36.199219c-1.773438-1.773437-4.203125-2.640624-6.738281-2.472656-2.5.207032-4.785157 1.507813-6.238282 3.546875l-30.171875 42.234375c-2.425781 3.394532-2.042969 8.042969.910157 10.992188zm13.152344-59.242187 21.960938 21.949219-28.160157 20.117187-13.914062-13.917969zm0 0"/><path d="m77.054688 322.199219 16.554687 4.160156c.015625-.078125 2.0625-7.953125 7.890625-19.609375l-15.265625-7.632812c-6.742187 13.484374-9.085937 22.691406-9.179687 23.082031zm0 0"/><path d="m194.195312 205.058594c-1.488281.367187-36.832031 9.507812-72.234374 44.910156-8.324219 8.332031-15.859376 17.332031-22.40625 26.765625l14.015624 9.734375c5.972657-8.601562 12.855469-16.828125 20.464844-24.433594 31.855469-31.859375 64.003906-40.34375 64.324219-40.425781l-2.09375-8.273437zm0 0"/><path d="m358.398438 469.332031h119.46875v17.066407h-119.46875zm0 0"/><path d="m324.265625 469.332031h17.066406v17.066407h-17.066406zm0 0"/></svg>