<svg height="511.99911pt" viewBox="1 1 511.99911 511.99911" width="511.99911pt" xmlns="http://www.w3.org/2000/svg"><path d="m460.800781 307.199219h-110.933593v-25.597657c0-4.714843-3.816407-8.535156-8.535157-8.535156h-31.753906c1.085937-.960937 2.195313-1.894531 3.230469-2.929687 8.617187-8.621094 14.722656-19.269531 17.625-30.605469.824218-2.953125 1.441406-6.007812 1.832031-9.132812h2.507813c8.867187-.105469 17.25-3.65625 23.601562-10.007813 7.042969-7.046875 10.648438-16.75 9.898438-26.625-.558594-7.96875-4.21875-15.332031-9.933594-20.972656.015625-.714844.058594-1.429688.058594-2.125v-162.132813c0-4.714844-3.816407-8.535156-8.53125-8.535156h-187.734376c-4.71875 0-8.535156 3.820312-8.535156 8.535156v162.132813c0 .699219.046875 1.417969.0625 2.136719-5.742187 5.671874-9.386718 13.023437-9.933594 20.933593-.757812 9.886719 2.847657 19.597657 9.898438 26.65625 6.351562 6.347657 14.734375 9.898438 23.699219 10.003907h2.402343c.390626 3.105468 1 6.121093 1.808594 9 3.527344 13.402343 10.949219 24.964843 20.835938 33.667968h-31.703125c-4.71875 0-8.535157 3.820313-8.535157 8.535156v25.597657h-110.929687c-28.234375 0-51.203125 22.96875-51.203125 51.199219v145.066406c0 4.714844 3.816406 8.535156 8.535156 8.535156h494.929688c4.71875 0 8.535156-3.820312 8.535156-8.535156v-145.066406c0-28.230469-22.96875-51.199219-51.199219-51.199219zm-375.46875 187.734375h-68.265625v-136.535156c0-18.820313 15.308594-34.132813 34.132813-34.132813h34.136719v170.667969zm247.46875-204.800782v17.066407h-66.808593c3.523437-9.933594 13.015624-17.066407 24.140624-17.066407zm-162.132812-273.066406h170.664062v59.734375h-170.664062zm0 76.800782h8.53125v9.054687h17.066406v-9.054687h145.066406v17.066406h-170.664062zm170.664062 47.734374v21.558594c-.578125-.144531-1.175781-.207031-1.761719-.320312-.496093-.09375-.984374-.195313-1.480468-.269532-1.753906-.257812-3.519532-.4375-5.292969-.4375v-13.882812c.6875-.480469 1.300781-.964844 1.953125-1.445312.527344-.386719 1.050781-.765626 1.550781-1.152344 1.789063-1.363282 3.492188-2.722656 5.03125-4.050782zm-10.425781-13.601562c-.128906.117188-.238281.226562-.371094.339844-1.042968.914062-2.214844 1.851562-3.402344 2.792968-.535156.425782-1.015624.839844-1.578124 1.269532-1.703126 1.285156-3.546876 2.578125-5.527344 3.859375-.128906.082031-.230469.167969-.363282.25-.003906.003906-.007812.007812-.011718.011719-17.660156 11.332031-39.074219 17.078124-63.65625 17.078124-6.144532 0-12.09375-.359374-17.832032-1.078124-17.222656-2.144532-32.582031-7.503907-45.832031-16.011719-2.121093-1.355469-4.054687-2.726563-5.859375-4.089844-.660156-.5-1.226562-.984375-1.847656-1.476563-1.074219-.859374-2.148438-1.714843-3.101562-2.546874-.152344-.136719-.28125-.261719-.433594-.398438zm-160.238281 13.601562c1.539062 1.332032 3.25 2.691407 5.039062 4.058594.488281.375 1 .746094 1.511719 1.121094.664062.488281 1.285156.980469 1.980469 1.46875v13.882812c-1.769531 0-3.53125.175782-5.285157.4375-.503906.074219-.996093.175782-1.496093.273438-.582031.109375-1.175781.175781-1.75.316406zm27.332031 93.316407c-1.148438-4.089844-1.734375-8.480469-1.734375-13.050781 0-4.714844-3.816406-8.535157-8.53125-8.535157h-10.308594c-4.386719-.054687-8.550781-1.832031-11.734375-5.007812-3.574218-3.574219-5.332031-8.296875-4.941406-13.34375.316406-4.5625 2.730469-8.84375 6.722656-11.808594 3.359375-2.5625 7.519532-3.972656 11.726563-3.972656h8.53125c4.71875 0 8.535156-3.820313 8.535156-8.53125v-12.5c.347656.160156.726563.269531 1.074219.429687 3.820312 1.761719 7.75 3.347656 11.800781 4.726563.761719.257812 1.550781.476562 2.324219.722656 3.75 1.195313 7.585937 2.230469 11.519531 3.101563.6875.152343 1.355469.335937 2.046875.476562 4.363281.890625 8.847656 1.554688 13.425781 2.050781 1.019531.113281 2.046875.199219 3.074219.289063 4.726562.417968 9.523438.699218 14.46875.699218 4.941406 0 9.742188-.28125 14.46875-.699218 1.027344-.089844 2.054688-.175782 3.070312-.289063 4.582032-.496093 9.070313-1.160156 13.4375-2.050781.679688-.140625 1.339844-.324219 2.019532-.472656 3.949218-.871094 7.804687-1.914063 11.566406-3.113282.757812-.242187 1.53125-.457031 2.28125-.710937 4.066406-1.378906 8.007812-2.972656 11.839844-4.742187.339844-.15625.710937-.257813 1.050781-.421876v12.5c0 4.714844 3.816406 8.535157 8.53125 8.535157h8.535156c4.207031 0 8.363281 1.40625 11.808594 4.027343 3.90625 2.910157 6.324219 7.191407 6.640625 11.75.007812.023438.007812.039063.007812.058594.382813 4.992188-1.375 9.714844-4.949218 13.285156-3.183594 3.179688-7.351563 4.957032-11.632813 5.011719h-10.410156c-4.714844 0-8.53125 3.820313-8.53125 8.53125 0 4.574219-.585937 8.964844-1.785156 13.242188-2.191407 8.566406-6.757813 16.511719-13.207031 22.964843-9.675782 9.671876-22.535157 14.996094-36.210938 14.996094h-17.066406c-23.207032 0-43.53125-15.632812-49.464844-38.148437zm58.21875 55.214843c-.070312.089844-.152344.171876-.21875.265626-.070312-.09375-.148438-.175782-.21875-.265626zm-77.019531 0h42.667969c11.125 0 20.617187 7.132813 24.140624 17.066407h-66.808593zm-10.207031 68.433594c-3.984376.796875-6.859376 4.300782-6.859376 8.367188v128h-59.730468v-170.667969h145.066406v18.605469zm240.609374 136.367188h-230.402343v-121.003906l78.476562-15.695313c3.980469-.796875 6.855469-4.300781 6.855469-8.367187v-25.601563h145.066406v68.265625h-42.664062c-4.71875 0-8.535156 3.824219-8.535156 8.535156v51.199219c0 4.714844 3.816406 8.535156 8.535156 8.535156h42.664062v34.132813zm-34.136718-51.199219v-34.136719h68.269531v34.136719zm119.46875 51.199219h-68.265625v-34.132813h25.597656c4.71875 0 8.535156-3.820312 8.535156-8.535156v-51.199219c0-4.710937-3.816406-8.535156-8.535156-8.535156h-25.597656v-68.265625h34.132812c18.824219 0 34.132813 15.3125 34.132813 34.136719zm0 0"/><path d="m196.265625 384h17.066406v17.066406h-17.066406zm0 0"/><path d="m196.265625 426.664062h17.066406v17.070313h-17.066406zm0 0"/><path d="m196.265625 460.800781h17.066406v17.066407h-17.066406zm0 0"/><path d="m179.199219 34.132812v34.132813h17.066406v-25.597656h25.601563v-17.066407h-34.132813c-4.71875 0-8.535156 3.820313-8.535156 8.53125zm0 0"/></svg>