<svg height="512pt" viewBox="0 -77 512 512" width="512pt" xmlns="http://www.w3.org/2000/svg"><path d="m469.332031 0h-358.398437c-29.332032 0-56.6875 11.304688-77.53125 31.734375-.339844.332031-.703125.636719-1.039063.976563-.429687.429687-.902343.804687-1.324219 1.242187-1.617187 1.679687-3.0625 3.472656-4.558593 5.230469-.457031.539062-.945313 1.046875-1.390625 1.59375-1.882813 2.292968-3.621094 4.667968-5.300782 7.078125-.351562.511719-.730468 1.003906-1.074218 1.519531-1.679688 2.503906-3.214844 5.074219-4.675782 7.6875-.285156.515625-.59375 1.015625-.871093 1.535156-1.398438 2.601563-2.660157 5.257813-3.839844 7.960938-.28125.648437-.582031 1.285156-.855469 1.9375-1.058594 2.554687-1.992187 5.152344-2.851562 7.785156-.308594.921875-.621094 1.839844-.902344 2.773438-.714844 2.390624-1.316406 4.808593-1.867188 7.25-.289062 1.265624-.582031 2.53125-.824218 3.816406-.410156 2.175781-.726563 4.371094-1.007813 6.578125-.207031 1.589843-.40625 3.175781-.542969 4.785156-.167968 2.023437-.25 4.054687-.308593 6.097656-.03125 1.125-.167969 2.21875-.167969 3.351563v204.800781c0 23.523437 19.140625 42.667969 42.667969 42.667969h426.664062c23.527344 0 42.667969-19.144532 42.667969-42.667969v-273.066406c0-23.527344-19.140625-42.667969-42.667969-42.667969zm25.601563 315.734375c0 14.117187-11.484375 25.597656-25.601563 25.597656h-426.664062c-14.117188 0-25.601563-11.480469-25.601563-25.597656v-146.265625c19.789063 31.359375 54.726563 52.402344 93.90625 52.398438.328125 0 .660156 0 .996094-.003907 54.203125-.496093 100.359375-41.085937 108.566406-93.863281h40.464844l31.632812 31.632812c3.332032 3.332032 8.734376 3.332032 12.066407 0l28.101562-28.097656 28.097657 28.097656c3.332031 3.332032 8.734374 3.332032 12.066406 0l28.101562-28.097656 28.097656 28.097656c3.332032 3.332032 8.734376 3.332032 12.066407 0l31.632812-31.632812h22.066407v187.734375zm-25.601563-204.800781c-2.261719 0-4.433593.898437-6.03125 2.5l-28.101562 28.101562-28.097657-28.101562c-3.335937-3.332032-8.734374-3.332032-12.066406 0l-28.101562 28.101562-28.097656-28.101562c-3.332032-3.332032-8.734376-3.332032-12.066407 0l-28.101562 28.101562-28.097657-28.101562c-1.601562-1.597656-3.773437-2.5-6.035156-2.5h-48.882812c-1.644532-.542969-3.453125-.574219-5.175782-.046875-3.34375 1.035156-5.71875 4.003906-5.988281 7.492187-3.730469 48.015625-44.433593 85.976563-92.675781 86.417969-.28125.003906-.558594.003906-.84375.003906-49.972656 0-91.988281-40.332031-93.832031-90.292969-.082031-2.175781.015625-4.324218.082031-6.480468.050781-1.6875.113281-3.371094.253906-5.035156.117188-1.398438.292969-2.78125.46875-4.167969.238282-1.832031.496094-3.660157.835938-5.460938.210937-1.113281.46875-2.210937.714844-3.316406.46875-2.042969.96875-4.074219 1.566406-6.0625.238281-.804687.511718-1.597656.773437-2.394531.734375-2.214844 1.515625-4.410156 2.402344-6.554688.234375-.558594.488281-1.105468.734375-1.660156 1-2.285156 2.066406-4.539062 3.246094-6.726562.230468-.433594.488281-.855469.726562-1.285157 1.242188-2.226562 2.550782-4.410156 3.964844-6.519531.289062-.429688.605469-.84375.898438-1.269531 1.429687-2.054688 2.910156-4.066407 4.492187-6 .382813-.464844.800781-.90625 1.191406-1.367188 1.59375-1.871093 3.222657-3.710937 4.957031-5.449219.300782-.304687.621094-.574218.925782-.875 16.933594-16.5625 40.0625-26.8125 65.566406-26.8125 26.710938 0 52.226562 11.402344 70.011719 31.285157 1.621093 1.8125 3.933593 2.847656 6.359375 2.847656h247.894531c20.246094 0 38.140625 10.148437 48.949219 25.597656h-194.019532v17.070313h202.285157c1.617187 5.410156 2.515625 11.132812 2.515625 17.066406h-25.601563zm25.601563-48.164063c-14.089844-17.441406-35.617188-28.636719-59.734375-28.636719h-244.164063c-6.359375-6.625-13.542968-12.261718-21.214844-17.066406h299.511719c14.117188 0 25.601563 11.484375 25.601563 25.601563zm0 0"/><path d="m76.800781 42.667969c-18.820312 0-34.132812 15.3125-34.132812 34.132812 0 18.820313 15.3125 34.132813 34.132812 34.132813 18.820313 0 34.132813-15.3125 34.132813-34.132813 0-18.820312-15.3125-34.132812-34.132813-34.132812zm0 51.199219c-9.414062 0-17.066406-7.65625-17.066406-17.066407 0-9.414062 7.652344-17.066406 17.066406-17.066406 9.410157 0 17.066407 7.652344 17.066407 17.066406 0 9.410157-7.65625 17.066407-17.066407 17.066407zm0 0"/><path d="m76.800781 238.933594h-34.132812c-4.714844 0-8.535157 3.820312-8.535157 8.535156v68.265625c0 4.710937 3.820313 8.53125 8.535157 8.53125h34.132812c4.710938 0 8.535157-3.820313 8.535157-8.53125v-68.265625c-.003907-4.714844-3.824219-8.535156-8.535157-8.535156zm-8.535156 68.265625h-17.066406v-51.199219h17.066406zm0 0"/><path d="m247.464844 238.933594h-34.132813c-4.710937 0-8.53125 3.820312-8.53125 8.535156v68.265625c0 4.710937 3.820313 8.53125 8.53125 8.53125h34.132813c4.714844 0 8.535156-3.820313 8.535156-8.53125v-68.265625c0-4.714844-3.820312-8.535156-8.535156-8.535156zm-8.53125 68.265625h-17.066406v-51.199219h17.066406zm0 0"/><path d="m145.066406 238.933594c-23.527344 0-42.667968 19.140625-42.667968 42.667968 0 23.523438 19.140624 42.667969 42.667968 42.667969 23.523438 0 42.667969-19.144531 42.667969-42.667969 0-23.527343-19.144531-42.667968-42.667969-42.667968zm0 68.265625c-14.117187 0-25.601562-11.480469-25.601562-25.597657 0-14.117187 11.484375-25.601562 25.601562-25.601562 14.117188 0 25.601563 11.484375 25.601563 25.601562 0 14.117188-11.484375 25.597657-25.601563 25.597657zm0 0"/><path d="m221.867188 76.800781h17.066406v17.066407h-17.066406zm0 0"/><path d="m256 76.800781h17.066406v17.066407h-17.066406zm0 0"/><path d="m414.867188 205.449219c-3.1875 1.320312-5.265626 4.433593-5.265626 7.882812v110.933594h17.066407v-5l34.132812-34.132813v22.066407h-17.066406v17.066406h25.597656c4.714844 0 8.535157-3.820313 8.535157-8.53125v-34.132813h-13.53125l11.03125-11.035156c3.332031-3.332031 3.332031-8.734375 0-12.066406l-51.199219-51.199219c-2.449219-2.445312-6.113281-3.179687-9.300781-1.851562zm11.796874 28.484375 30.601563 30.597656-30.601563 30.601562zm0 0"/><path d="m384 204.800781h-34.132812c-4.714844 0-8.535157 3.820313-8.535157 8.53125v102.402344c0 4.710937 3.820313 8.53125 8.535157 8.53125h34.132812c4.710938 0 8.53125-3.820313 8.53125-8.53125v-102.402344c0-4.710937-3.820312-8.53125-8.53125-8.53125zm-8.535156 102.398438h-17.066406v-85.332031h17.066406zm0 0"/><path d="m42.667969 110.933594c0 17.972656 6.925781 34.941406 19.503906 47.773437l12.191406-11.941406c-9.433593-9.628906-14.628906-22.355469-14.628906-35.832031zm0 0"/><path d="m75.75 169.445312c10.597656 6.382813 22.761719 9.753907 35.183594 9.753907v-17.066407c-9.320313 0-18.441406-2.523437-26.375-7.304687zm0 0"/></svg>