<svg height="511pt" viewBox="0 -8 511.99989 511" width="511pt" xmlns="http://www.w3.org/2000/svg"><path d="m256 116.113281v-16.515625c-36.695312 0-71.90625 13.464844-99.144531 37.914063l11.03125 12.289062c24.207031-21.722656 55.496093-33.6875 88.113281-33.6875zm0 0"/><path d="m155.253906 162.746094-12.597656-10.683594c-5.21875 6.152344-9.980469 12.816406-14.148438 19.808594l14.183594 8.460937c3.703125-6.210937 7.933594-12.125 12.5625-17.585937zm0 0"/><path d="m435.257812 382.789062c-3.226562-3.222656-8.453124-3.222656-11.675781 0l-2.421875 2.421876-23.425781-23.429688c5.085937-6.355469 9.800781-12.996094 13.96875-19.988281.007813-.007813.007813-.011719.011719-.019531.007812-.011719.015625-.019532.023437-.03125.003907-.007813.003907-.015626.007813-.023438 16.964844-28 25.933594-60.320312 25.933594-93.476562 0-33.1875-8.980469-65.535157-25.941407-93.5-8.675781-14.542969-19.441406-27.683594-31.867187-39.246094v-106.738282c0-4.558593-3.695313-8.257812-8.257813-8.257812h-231.226562c-4.5625 0-8.257813 3.699219-8.257813 8.257812v106.738282c-12.433594 11.574218-23.191406 24.707031-31.835937 39.191406-.003907.007812-.007813.015625-.011719.023438-.007812.007812-.015625.019531-.019531.03125-.003907.003906-.007813.011718-.011719.019531-16.960938 28-25.929688 60.324219-25.929688 93.480469 0 33.183593 8.980469 65.535156 25.9375 93.5 8.679688 14.539062 19.441407 27.683593 31.867188 39.242187v106.742187c0 4.558594 3.699219 8.257813 8.257812 8.257813h231.226563c4.5625 0 8.257813-3.699219 8.257813-8.257813v-87.421874l13.097656 13.097656-2.417969 2.421875c-3.226563 3.222656-3.226563 8.449219 0 11.675781l66.0625 66.0625c1.613281 1.613281 3.726563 2.421875 5.839844 2.421875 2.109375 0 4.222656-.808594 5.835937-2.421875l33.035156-33.03125c3.222657-3.226562 3.222657-8.453125 0-11.675781zm-196.519531 29.632813c-34.441406-3.597656-66.914062-17.820313-92.855469-41.105469-3.039062-2.710937-5.957031-5.527344-8.773437-8.441406-.824219-.851562-1.574219-1.769531-2.378906-2.640625-1.941407-2.097656-3.882813-4.195313-5.707031-6.390625-.933594-1.125-1.789063-2.3125-2.691407-3.460938-1.589843-2.023437-3.191406-4.035156-4.6875-6.132812-.945312-1.332031-1.8125-2.71875-2.71875-4.078125-1.125-1.6875-2.25-3.371094-3.3125-5.097656v-173.667969c1.042969-1.695312 2.148438-3.347656 3.253907-5.003906.933593-1.40625 1.828124-2.835938 2.808593-4.210938 1.429688-2.007812 2.972657-3.941406 4.496094-5.882812.960937-1.230469 1.878906-2.496094 2.875-3.699219 1.753906-2.101563 3.617187-4.113281 5.472656-6.128906.882813-.957031 1.707031-1.957031 2.613281-2.894531 2.8125-2.910157 5.730469-5.730469 8.769532-8.4375 30.222656-27.128907 69.324218-42.066407 110.097656-42.066407 5.796875 0 11.546875.382813 17.257812.976563 34.445313 3.597656 66.917969 17.824218 92.859376 41.109375 3.035156 2.707031 5.957031 5.527343 8.769531 8.441406.824219.851563 1.578125 1.769531 2.382812 2.640625 1.941407 2.097656 3.878907 4.195312 5.707031 6.390625.933594 1.125 1.785157 2.3125 2.691407 3.460937 1.589843 2.019532 3.191406 4.035157 4.683593 6.132813.949219 1.328125 1.8125 2.71875 2.722657 4.078125 1.125 1.683594 2.25 3.371094 3.3125 5.097656v173.667969c-1.039063 1.6875-2.140625 3.335937-3.242188 4.984375-.941406 1.414062-1.839843 2.855469-2.824219 4.234375-1.429687 2.003906-2.964843 3.929687-4.484374 5.867187-.964844 1.230469-1.882813 2.503907-2.886719 3.710938-1.738281 2.089844-3.59375 4.085938-5.4375 6.089844-.894531.972656-1.734375 1.988281-2.652344 2.9375-2.808594 2.910156-5.726563 5.726562-8.765625 8.433594-30.21875 27.128906-69.320312 42.066406-110.09375 42.066406-5.800781 0-11.550781-.382813-17.261719-.980469zm174.164063-112.753906v-102.859375c5.394531 16.464844 8.257812 33.804687 8.257812 51.433594 0 17.621093-2.859375 34.957031-8.257812 51.425781zm-264.257813-282.652344h214.710938v84.644531c-4.035157-2.960937-8.195313-5.726562-12.4375-8.335937-1.113281-.679688-2.28125-1.265625-3.40625-1.921875-3.34375-1.953125-6.710938-3.847656-10.164063-5.578125-1.691406-.847657-3.425781-1.597657-5.140625-2.390625-2.984375-1.378906-5.980469-2.71875-9.03125-3.933594-1.90625-.757812-3.832031-1.449219-5.761719-2.140625-2.96875-1.066406-5.957031-2.0625-8.980468-2.972656-1.992188-.597657-3.980469-1.171875-5.992188-1.703125-3.101562-.816406-6.230468-1.523438-9.375-2.175782-1.953125-.40625-3.894531-.835937-5.863281-1.179687-3.453125-.597656-6.933594-1.039063-10.425781-1.4375-1.695313-.195313-3.375-.460937-5.078125-.609375-5.203125-.445312-10.433594-.714844-15.699219-.714844s-10.496094.269532-15.699219.714844c-1.707031.148438-3.386719.414062-5.082031.609375-3.492188.398437-6.96875.835937-10.414062 1.4375-1.976563.339844-3.925782.773437-5.886719 1.179687-3.136719.652344-6.253907 1.355469-9.34375 2.171876-2.023438.535156-4.023438 1.109374-6.027344 1.714843-3.003906.902344-5.976563 1.890625-8.925781 2.949219-1.949219.703125-3.894532 1.402344-5.820313 2.167969-3.015625 1.199219-5.976562 2.519531-8.921875 3.882812-1.753906.808594-3.527344 1.574219-5.253906 2.441407-3.371094 1.691406-6.65625 3.542968-9.917969 5.441406-1.210937.707031-2.457031 1.328125-3.648437 2.0625-4.238282 2.601562-8.386719 5.363281-12.414063 8.320312zm-49.546875 179.800781v102.859375c-5.394531-16.464843-8.257812-33.804687-8.257812-51.433593 0-17.625 2.859375-34.957032 8.257812-51.425782zm264.257813 282.652344h-214.710938v-84.644531c4.035157 2.960937 8.191407 5.726562 12.4375 8.335937 1.113281.683594 2.277344 1.265625 3.40625 1.921875 3.339844 1.953125 6.710938 3.847657 10.164063 5.578125 1.691406.847656 3.425781 1.597656 5.140625 2.390625 2.984375 1.378907 5.980469 2.714844 9.03125 3.933594 1.90625.757813 3.832031 1.449219 5.761719 2.140625 2.96875 1.066406 5.957031 2.0625 8.980468 2.972656 1.988282.597656 3.980469 1.171875 5.992188 1.703125 3.101562.816407 6.226562 1.523438 9.375 2.175781 1.953125.40625 3.894531.835938 5.863281 1.179688 3.449219.597656 6.933594 1.035156 10.425781 1.4375 1.695313.195312 3.375.460938 5.078125.605469 5.203125.449219 10.433594.71875 15.699219.71875s10.496094-.269531 15.695312-.71875c1.707032-.144531 3.390626-.410157 5.085938-.605469 3.488281-.398438 6.964844-.839844 10.410156-1.4375 1.976563-.34375 3.929688-.773438 5.890625-1.183594 3.136719-.648437 6.253907-1.355468 9.34375-2.167968 2.019531-.535157 4.023438-1.113282 6.023438-1.714844 3.003906-.90625 5.976562-1.894532 8.925781-2.953125 1.953125-.699219 3.898438-1.398438 5.824219-2.164063 3.011719-1.199218 5.972656-2.523437 8.921875-3.882812 1.753906-.8125 3.523437-1.578125 5.253906-2.445313 3.363281-1.6875 6.644531-3.535156 9.902344-5.433593 1.214844-.707032 2.46875-1.335938 3.664062-2.070313 4.238282-2.601563 8.386719-5.363281 12.410156-8.320313v84.648438zm19.933593-99.097656 4.839844-4.839844 21.355469 21.355469-4.839844 4.839843zm79.164063 95.675781-54.390625-54.386719 2.421875-2.417968 16.515625-16.515626 2.417969-2.421874 54.390625 54.386718zm0 0"/><path d="m231.226562 446.4375h49.546876v16.515625h-49.546876zm0 0"/><path d="m247.742188 33.53125h16.515624v16.519531h-16.515624zm0 0"/><path d="m214.710938 33.53125h16.515624v16.519531h-16.515624zm0 0"/><path d="m280.773438 33.53125h16.515624v16.519531h-16.515624zm0 0"/><path d="m509.582031 242.402344-49.550781-49.546875c-2.367188-2.367188-5.914062-3.082031-9-1.789063-3.082031 1.277344-5.09375 4.289063-5.09375 7.628906v99.09375c0 3.339844 2.011719 6.351563 5.09375 7.628907 1.027344.425781 2.097656.632812 3.164062.632812 2.148438 0 4.257813-.839843 5.835938-2.421875l49.546875-49.546875c3.226563-3.226562 3.226563-8.453125.003906-11.679687zm-47.128906 35.453125v-59.226563l29.609375 29.613282zm0 0"/><path d="m60.96875 191.066406c-3.097656-1.292968-6.636719-.578125-9 1.789063l-49.550781 49.546875c-3.222657 3.226562-3.222657 8.453125 0 11.679687l49.550781 49.546875c1.578125 1.582032 3.6875 2.417969 5.835938 2.417969 1.066406 0 2.136718-.203125 3.160156-.628906 3.085937-1.277344 5.097656-4.289063 5.097656-7.628907v-99.09375c0-3.339843-2.011719-6.351562-5.09375-7.628906zm-11.421875 86.789063-29.613281-29.613281 29.613281-29.613282zm0 0"/><path d="m379.871094 314.304688v-33.03125c0-4.558594-3.699219-8.257813-8.257813-8.257813h-231.226562c-4.5625 0-8.257813 3.699219-8.257813 8.257813v33.03125c0 4.5625 3.695313 8.257812 8.257813 8.257812h231.226562c4.558594 0 8.257813-3.695312 8.257813-8.257812zm-16.515625-8.253907h-214.710938v-16.519531h214.710938zm0 0"/><path d="m181.675781 206.953125c0-13.660156-11.113281-24.777344-24.773437-24.777344s-24.773438 11.113281-24.773438 24.777344c0 13.660156 11.113282 24.773437 24.773438 24.773437s24.773437-11.113281 24.773437-24.773437zm-33.03125 0c0-4.554687 3.707031-8.257813 8.257813-8.257813 4.554687 0 8.257812 3.703126 8.257812 8.257813 0 4.550781-3.703125 8.257813-8.257812 8.257813-4.550782 0-8.257813-3.707032-8.257813-8.257813zm0 0"/><path d="m206.453125 248.242188v-66.066407h-16.519531v57.808594h-49.546875v16.515625h57.808593c4.558594 0 8.257813-3.699219 8.257813-8.257812zm0 0"/><path d="m222.96875 190.4375v57.804688c0 4.558593 3.695312 8.257812 8.257812 8.257812h140.386719c4.558594 0 8.257813-3.699219 8.257813-8.257812 0-36.425782-29.636719-66.066407-66.066406-66.066407h-82.578126c-4.5625 0-8.257812 3.699219-8.257812 8.261719zm16.515625 8.257812h74.320313c24.507812 0 44.917968 17.886719 48.859374 41.289063h-123.183593v-41.289063zm0 0"/></svg>